<svg enable-background="new 0 0 45 45" viewBox="0 0 45 45" xmlns="http://www.w3.org/2000/svg" xmlns:xlink="http://www.w3.org/1999/xlink"><clipPath id="a"><path d="m0 36h36v-36h-36z"/></clipPath><g clip-path="url(#a)" transform="matrix(1.25 0 0 -1.25 0 45)"><path d="m0 0c-.825 0-1.62-.125-2.369-.357-.887 2.535-3.293 4.357-6.131 4.357-3.044 0-5.592-2.096-6.299-4.921-.754.57-1.682.921-2.701.921-2.485 0-4.5-2.015-4.5-4.5 0-.604.123-1.178.339-1.704-.429.119-.872.204-1.339.204-2.762 0-5-2.238-5-5s2.238-5 5-5h23c4.418 0 8 3.581 8 8 0 4.418-3.582 8-8 8" fill="#e1e8ed" transform="translate(28 32)"/><g fill="#5dadec"><path d="m0 0-.113 3.421-2.87-1.708c-.639-.345-1.062-1.025-1.036-1.799.037-1.102.966-1.976 2.076-1.953s1.98.936 1.943 2.039" transform="translate(11.999 11.039)"/><path d="m0 0-.113 3.421-2.87-1.708c-.639-.345-1.062-1.025-1.036-1.799.037-1.103.966-1.976 2.076-1.953s1.98.936 1.943 2.039" transform="translate(10.02 3.579)"/><path d="m0 0-.113 3.421-2.87-1.708c-.639-.345-1.062-1.025-1.036-1.799.037-1.102.966-1.976 2.076-1.953s1.98.936 1.943 2.039" transform="translate(5.02 8.039)"/><path d="m0 0-.113 3.421-2.869-1.708c-.639-.345-1.063-1.025-1.036-1.799.037-1.102.965-1.976 2.076-1.953 1.109.023 1.979.936 1.942 2.039" transform="translate(23.02 11.039)"/><path d="m0 0-.113 3.421-2.869-1.708c-.639-.345-1.063-1.025-1.037-1.799.038-1.102.966-1.976 2.077-1.953 1.109.023 1.979.936 1.942 2.039" transform="translate(16.999 7.039)"/><path d="m0 0-.113 3.421-2.869-1.708c-.639-.345-1.063-1.025-1.036-1.799.037-1.103.965-1.976 2.076-1.953 1.109.023 1.979.936 1.942 2.039" transform="translate(22.02 2.579)"/><path d="m0 0-.113 3.421-2.869-1.708c-.639-.345-1.063-1.025-1.037-1.799.038-1.102.966-1.976 2.077-1.953 1.109.023 1.979.936 1.942 2.039" transform="translate(28.999 8.039)"/></g></g></svg>